<svg xmlns="http://www.w3.org/2000/svg" viewBox="0 0 64 64"><path d="M54.7 28.4l-4.5-.8a18.3 18.3 0 00-1.5-3.6l2.7-3.7a2 2 0 00-.2-2.6l-4.9-4.9a2 2 0 00-2.6-.2L40 15.3a18.3 18.3 0 00-3.6-1.5l-.8-4.5A2 2 0 0033.7 8h-6.9a2 2 0 00-2 1.7l-.8 4.5A18.3 18.3 0 0020.4 15.7l-3.7-2.7a2 2 0 00-2.6.2l-4.9 4.9a2 2 0 00-.2 2.6l2.7 3.7a18.3 18.3 0 00-1.5 3.6l-4.5.8A2 2 0 004 30.3v6.9a2 2 0 001.7 2l4.5.8a18.3 18.3 0 001.5 3.6l-2.7 3.7a2 2 0 00.2 2.6l4.9 4.9a2 2 0 002.6.2l3.7-2.7a18.3 18.3 0 003.6 1.5l.8 4.5a2 2 0 002 1.7h6.9a2 2 0 002-1.7l.8-4.5a18.3 18.3 0 003.6-1.5l3.7 2.7a2 2 0 002.6-.2l4.9-4.9a2 2 0 00.2-2.6L48.7 43.6a18.3 18.3 0 001.5-3.6l4.5-.8a2 2 0 001.7-2v-6.9a2 2 0 00-1.7-1.9zM32 42a10 10 0 110-20 10 10 0 010 20z" fill="#7F7F7F"/></svg>